<svg width="937" height="619" viewBox="0 0 937 619" fill="none" xmlns="http://www.w3.org/2000/svg">
<path d="M813.55 308.486C1047.5 223.5 855.511 -231.245 583.838 -84.0937C312.165 63.0575 70.4999 -69 70.4999 -69C70.4999 -69 15.6605 -29.2794 -35.5001 110C-86.6607 249.279 -116.5 502.5 208.752 430.18C534.003 357.861 548.581 629.198 642.5 599C736.419 568.801 579.6 393.471 813.55 308.486Z" fill="#D8BDDA" stroke="#ADAB37" stroke-width="35"/>
<path d="M799.018 288.874C1024 195 840.332 -226.272 572.848 -85.8232C305.363 54.6253 283 -120 145.5 -85.8232C7.99994 -51.6464 10.8718 -91.9353 -39.5 41C-89.8718 173.935 -146.5 465 203.544 405.026C553.589 345.052 542.029 608.323 634.5 579.5C726.971 550.677 574.036 382.749 799.018 288.874Z" fill="#D8BDDA" stroke="#E03125" stroke-width="25"/>
</svg>
