<svg width="646" height="579" viewBox="0 0 646 579" fill="none" xmlns="http://www.w3.org/2000/svg">
<path d="M565.213 351.401C688.747 268.209 632.336 -85.1787 485.464 39.2884C338.593 163.755 328.116 150.718 287.729 81.4152C247.343 12.1125 195.582 106.748 141.5 151C101.691 183.573 57.3862 197.168 36 224C19.9779 244.102 23.5053 262.64 14.8148 351.401C3.77414 464.165 44.8414 458.45 91.0269 506.799C194.414 615.03 415.903 546.694 466.677 521.151C517.451 495.607 441.679 434.594 565.213 351.401Z" fill="#D8BDDA" stroke="#ADAB37" stroke-width="25"/>
<path d="M545.371 347.89C661.327 270.232 624.362 -57.1873 486.5 59.0001C348.638 175.188 322.818 160.557 284.909 95.8643C247 31.1717 203.265 114.692 152.5 156C114.528 186.898 116.39 181.769 83.5 205C20.5 249.5 36.7172 266.824 28.736 347.89C18.3727 453.153 55.9547 447.946 100.273 492.951C196.962 591.139 405.22 530.192 452.88 506.348C500.539 482.504 429.415 425.549 545.371 347.89Z" fill="#D8BDDA" stroke="#E03125" stroke-width="25"/>
</svg>
