<svg width="699" height="299" viewBox="0 0 699 299" fill="none" xmlns="http://www.w3.org/2000/svg">
<path d="M26.7168 83.1024C26.7819 84.4371 27.026 85.7391 27.4492 87.0087C27.8724 88.2782 28.5397 89.4012 29.4512 90.3778C30.3626 91.3218 31.5671 92.0868 33.0645 92.6727C34.5618 93.2261 36.4336 93.5028 38.6797 93.5028C41.2839 93.5028 43.4323 93.161 45.125 92.4774C46.8503 91.7613 48.2012 90.8173 49.1777 89.6454C50.1868 88.4735 50.8867 87.1389 51.2773 85.6415C51.7005 84.1441 51.9121 82.5979 51.9121 81.0028V57.7118C51.9121 55.954 51.3424 54.7007 50.2031 53.952C49.0638 53.1708 46.7689 52.7802 43.3184 52.7802V34.6649H88.6797V52.7802C85.8151 52.7802 83.7643 53.1708 82.5273 53.952C81.3229 54.7007 80.7207 56.1493 80.7207 58.2977V80.9052C80.7207 83.7046 80.2812 86.732 79.4023 89.9872C78.5234 93.2424 76.9121 96.2372 74.5684 98.9716C72.2572 101.706 69.0671 104.001 64.998 105.856C60.929 107.679 55.7044 108.591 49.3242 108.591C43.3021 108.591 38.3704 107.761 34.5293 106.1C30.7207 104.44 27.7422 102.39 25.5938 99.9481C23.4779 97.5067 22.013 94.9351 21.1992 92.2333C20.3854 89.5315 19.9785 87.1877 19.9785 85.202C19.9785 82.3374 20.4017 79.7984 21.248 77.5848C22.0944 75.3713 23.1849 73.5321 24.5195 72.0673C25.8542 70.6024 27.4004 69.5119 29.1582 68.7958C30.916 68.0471 32.7552 67.6727 34.6758 67.6727C36.9544 67.6727 38.8913 68.0145 40.4863 68.6981C42.0814 69.3492 43.3997 70.2281 44.4414 71.3348C45.4831 72.4416 46.2318 73.6949 46.6875 75.0946C47.1758 76.4943 47.4199 77.9266 47.4199 79.3915C47.4199 80.9865 47.1432 82.4514 46.5898 83.786C46.069 85.1206 45.3529 86.2762 44.4414 87.2528C43.5625 88.1968 42.4883 88.9618 41.2188 89.5477C39.9492 90.1011 38.6146 90.3778 37.2148 90.3778C35.5221 90.3778 34.0898 90.1662 32.918 89.743C31.7786 89.3199 30.8021 88.7665 29.9883 88.0829C29.207 87.3667 28.5397 86.5692 27.9863 85.6903C27.4655 84.8114 27.0423 83.9488 26.7168 83.1024ZM120.613 82.7118C120.743 87.5621 121.655 90.9149 123.348 92.7704C125.073 94.5933 127.531 95.5048 130.721 95.5048C131.795 95.5048 132.837 95.3583 133.846 95.0653C134.887 94.7398 135.848 94.2352 136.727 93.5516C137.605 92.8355 138.354 91.9078 138.973 90.7684C139.624 89.5966 140.047 88.1317 140.242 86.3739H158.016C157.365 90.5731 156.16 94.0887 154.402 96.9208C152.677 99.7528 150.447 102.048 147.713 103.806C144.979 105.531 141.788 106.768 138.143 107.516C134.529 108.298 130.493 108.688 126.033 108.688C121.443 108.688 117.13 108.102 113.094 106.931C109.057 105.759 105.509 103.985 102.449 101.608C99.4219 99.1994 97.0456 96.1884 95.3203 92.5751C93.5951 88.9292 92.7324 84.5998 92.7324 79.5868C92.7324 74.8016 93.5462 70.6024 95.1738 66.9891C96.8014 63.3759 99.0801 60.3648 102.01 57.9559C104.972 55.5145 108.455 53.6753 112.459 52.4384C116.495 51.2014 120.923 50.5829 125.74 50.5829C131.665 50.5829 136.759 51.3641 141.023 52.9266C145.288 54.4891 148.771 56.6701 151.473 59.4696C154.174 62.2691 156.16 65.6382 157.43 69.577C158.699 73.5158 159.301 77.8941 159.236 82.7118H120.613ZM127.84 63.7665C125.561 63.7665 123.868 64.5803 122.762 66.2079C121.688 67.8029 120.971 70.4559 120.613 74.1669H134.92C134.725 70.9768 134.041 68.454 132.869 66.5985C131.697 64.7105 130.021 63.7665 127.84 63.7665ZM220.76 70.6024H207.332C206.388 68.2587 204.923 66.4032 202.938 65.036C200.952 63.6688 198.885 62.9852 196.736 62.9852C195.271 62.9852 194.1 63.2619 193.221 63.8153C192.374 64.3361 191.951 65.1337 191.951 66.2079C191.951 67.5425 192.7 68.5516 194.197 69.2352C195.695 69.8863 197.566 70.4722 199.812 70.993C202.091 71.5139 204.549 72.1486 207.186 72.8973C209.822 73.6135 212.264 74.6552 214.51 76.0223C216.788 77.3895 218.676 79.2287 220.174 81.5399C221.671 83.8511 222.42 86.8947 222.42 90.6708C222.42 93.6005 221.769 96.1558 220.467 98.3368C219.165 100.518 217.374 102.308 215.096 103.708C212.85 105.108 210.197 106.149 207.137 106.833C204.077 107.549 200.773 107.907 197.225 107.907C193.774 107.907 190.503 107.565 187.41 106.882C184.35 106.231 181.421 105.108 178.621 103.513L178.133 106.882H165.242V87.3016H178.621C179.891 89.9058 181.486 91.924 183.406 93.3563C185.359 94.7886 187.508 95.5048 189.852 95.5048C191.642 95.5048 192.911 95.1792 193.66 94.5282C194.441 93.8446 194.832 93.0959 194.832 92.2821C194.832 90.9475 194.083 89.9221 192.586 89.2059C191.089 88.4572 189.233 87.8062 187.02 87.2528C184.839 86.6669 182.43 86.0321 179.793 85.3485C177.156 84.6324 174.731 83.607 172.518 82.2723C170.337 80.9377 168.497 79.1473 167 76.9012C165.503 74.6226 164.754 71.6441 164.754 67.9657C164.754 65.329 165.34 62.9201 166.512 60.7391C167.716 58.5581 169.425 56.719 171.639 55.2216C173.852 53.7242 176.456 52.5848 179.451 51.8036C182.446 50.9898 185.734 50.5829 189.314 50.5829C193.318 50.5829 196.915 51.0386 200.105 51.9501C203.328 52.829 205.737 53.8055 207.332 54.8798L207.82 51.413H220.76V70.6024ZM284.529 70.6024H271.102C270.158 68.2587 268.693 66.4032 266.707 65.036C264.721 63.6688 262.654 62.9852 260.506 62.9852C259.041 62.9852 257.869 63.2619 256.99 63.8153C256.144 64.3361 255.721 65.1337 255.721 66.2079C255.721 67.5425 256.469 68.5516 257.967 69.2352C259.464 69.8863 261.336 70.4722 263.582 70.993C265.861 71.5139 268.318 72.1486 270.955 72.8973C273.592 73.6135 276.033 74.6552 278.279 76.0223C280.558 77.3895 282.446 79.2287 283.943 81.5399C285.441 83.8511 286.189 86.8947 286.189 90.6708C286.189 93.6005 285.538 96.1558 284.236 98.3368C282.934 100.518 281.144 102.308 278.865 103.708C276.619 105.108 273.966 106.149 270.906 106.833C267.846 107.549 264.542 107.907 260.994 107.907C257.544 107.907 254.272 107.565 251.18 106.882C248.12 106.231 245.19 105.108 242.391 103.513L241.902 106.882H229.012V87.3016H242.391C243.66 89.9058 245.255 91.924 247.176 93.3563C249.129 94.7886 251.277 95.5048 253.621 95.5048C255.411 95.5048 256.681 95.1792 257.43 94.5282C258.211 93.8446 258.602 93.0959 258.602 92.2821C258.602 90.9475 257.853 89.9221 256.355 89.2059C254.858 88.4572 253.003 87.8062 250.789 87.2528C248.608 86.6669 246.199 86.0321 243.562 85.3485C240.926 84.6324 238.501 83.607 236.287 82.2723C234.106 80.9377 232.267 79.1473 230.77 76.9012C229.272 74.6226 228.523 71.6441 228.523 67.9657C228.523 65.329 229.109 62.9201 230.281 60.7391C231.486 58.5581 233.195 56.719 235.408 55.2216C237.622 53.7242 240.226 52.5848 243.221 51.8036C246.215 50.9898 249.503 50.5829 253.084 50.5829C257.088 50.5829 260.685 51.0386 263.875 51.9501C267.098 52.829 269.507 53.8055 271.102 54.8798L271.59 51.413H284.529V70.6024ZM326.961 52.7802V83.2001C326.961 85.3811 327.498 86.8134 328.572 87.4969C329.646 88.148 331.014 88.4735 332.674 88.4735H333.992V106.589H292.879V88.4735H294.783C296.508 88.4735 297.778 87.9364 298.592 86.8622C299.438 85.7554 299.861 84.5673 299.861 83.2977V76.413C299.861 74.5249 299.259 73.1415 298.055 72.2626C296.883 71.3511 295.516 70.8954 293.953 70.8954H292.879V52.7802H326.961ZM299.08 40.7684C299.08 37.969 300.138 35.5764 302.254 33.5907C304.402 31.605 307.446 30.6122 311.385 30.6122C315.389 30.6122 318.465 31.605 320.613 33.5907C322.794 35.5764 323.885 37.969 323.885 40.7684C323.885 43.633 322.794 46.0581 320.613 48.0438C318.465 49.9969 315.389 50.9735 311.385 50.9735C307.446 50.9735 304.402 49.9969 302.254 48.0438C300.138 46.0581 299.08 43.633 299.08 40.7684ZM373.445 63.7665C370.646 63.7665 368.497 64.9546 367 67.3309C365.503 69.7072 364.754 73.6623 364.754 79.1962C364.754 84.73 365.519 88.6688 367.049 91.0126C368.611 93.3238 370.988 94.4794 374.178 94.4794C375.089 94.4794 376.017 94.3329 376.961 94.0399C377.905 93.7469 378.751 93.3238 379.5 92.7704C380.281 92.1844 380.916 91.452 381.404 90.5731C381.925 89.6617 382.218 88.6037 382.283 87.3993H398.055C397.013 94.6584 394.083 100.03 389.266 103.513C384.48 106.963 377.645 108.688 368.758 108.688C364.298 108.688 360.132 108.102 356.258 106.931C352.384 105.759 349.015 103.985 346.15 101.608C343.286 99.1994 341.04 96.1884 339.412 92.5751C337.785 88.9292 336.971 84.5998 336.971 79.5868C336.971 74.8016 337.785 70.6024 339.412 66.9891C341.04 63.3759 343.318 60.3648 346.248 57.9559C349.21 55.5145 352.693 53.6753 356.697 52.4384C360.734 51.2014 365.161 50.5829 369.979 50.5829C375.089 50.5829 379.402 51.2177 382.918 52.4872C386.434 53.7567 389.266 55.3518 391.414 57.2723C393.595 59.1604 395.141 61.2111 396.053 63.4247C396.997 65.6057 397.469 67.6565 397.469 69.577C397.469 71.107 397.241 72.6044 396.785 74.0692C396.362 75.5341 395.646 76.8687 394.637 78.0731C393.66 79.2775 392.407 80.2541 390.877 81.0028C389.347 81.719 387.475 82.077 385.262 82.077C383.146 82.077 381.421 81.7841 380.086 81.1981C378.751 80.5796 377.71 79.8309 376.961 78.952C376.245 78.0406 375.724 77.0966 375.398 76.12C375.105 75.1109 374.959 74.1669 374.959 73.288C374.959 71.3023 375.431 69.7235 376.375 68.5516C377.319 67.3798 378.41 66.566 379.646 66.1102C378.93 65.5568 378.198 65.036 377.449 64.5477C376.733 64.0269 375.398 63.7665 373.445 63.7665ZM428.475 59.5673C426.814 59.5673 425.382 59.6975 424.178 59.9579C423.006 60.1858 421.997 60.4624 421.15 60.788C420.304 61.1135 419.604 61.4878 419.051 61.911C418.497 62.3016 418.009 62.6597 417.586 62.9852L418.074 63.4735C418.693 63.148 419.36 62.8225 420.076 62.4969C420.825 62.1714 421.769 62.0087 422.908 62.0087C424.829 62.0087 426.489 62.6434 427.889 63.913C429.288 65.1499 429.988 67.1356 429.988 69.87C429.988 72.4742 428.914 74.5738 426.766 76.1688C424.65 77.7313 421.801 78.5126 418.221 78.5126C414.803 78.5126 412.068 77.536 410.018 75.5829C407.999 73.5972 406.99 70.7977 406.99 67.1844C406.99 65.1988 407.544 63.2294 408.65 61.2762C409.757 59.2906 411.466 57.5165 413.777 55.954C416.121 54.3915 419.083 53.1057 422.664 52.0966C426.277 51.0874 430.623 50.5829 435.701 50.5829C441.756 50.5829 446.704 51.1525 450.545 52.2919C454.386 53.4312 457.365 54.896 459.48 56.6864C461.629 58.4768 463.094 60.5113 463.875 62.7899C464.689 65.0686 465.096 67.3635 465.096 69.6747V88.7665C465.096 91.7287 465.193 93.7469 465.389 94.8212C465.584 95.8628 466.316 96.3837 467.586 96.3837C468.595 96.3837 469.295 95.9117 469.686 94.9677C470.109 93.9911 470.32 92.3309 470.32 89.9872V83.8837H475.887V90.0848C475.887 93.0145 475.643 95.6187 475.154 97.8973C474.666 100.143 473.738 102.08 472.371 103.708C471.004 105.303 469.148 106.507 466.805 107.321C464.461 108.168 461.466 108.591 457.82 108.591C454.533 108.591 451.798 108.233 449.617 107.516C447.469 106.833 445.76 105.97 444.49 104.929C443.221 103.887 442.309 102.813 441.756 101.706C441.235 100.567 440.975 99.5575 440.975 98.6786H440.193C439.998 100.013 439.428 101.283 438.484 102.487C437.573 103.692 436.287 104.766 434.627 105.71C432.999 106.621 431.03 107.354 428.719 107.907C426.44 108.493 423.836 108.786 420.906 108.786C418.107 108.786 415.551 108.509 413.24 107.956C410.962 107.435 409.008 106.605 407.381 105.466C405.786 104.294 404.533 102.796 403.621 100.974C402.742 99.118 402.303 96.9208 402.303 94.3817C402.303 91.2567 403.182 88.799 404.939 87.0087C406.697 85.1858 408.911 83.7535 411.58 82.7118C414.249 81.6376 417.146 80.7749 420.271 80.1239C423.429 79.4403 426.342 78.6265 429.012 77.6825C431.681 76.7385 433.895 75.5178 435.652 74.0204C437.41 72.523 438.289 70.4071 438.289 67.6727C438.289 65.2313 437.524 63.2782 435.994 61.8134C434.464 60.316 431.958 59.5673 428.475 59.5673ZM438.289 80.7098C437.573 81.7515 436.678 82.5979 435.604 83.2489C434.529 83.8674 433.488 84.4859 432.479 85.1044C431.502 85.6903 430.639 86.4065 429.891 87.2528C429.174 88.0666 428.816 89.1734 428.816 90.5731C428.816 91.6473 429.109 92.6239 429.695 93.5028C430.281 94.3492 431.421 94.7723 433.113 94.7723C434.643 94.7723 435.88 94.1864 436.824 93.0145C437.801 91.8101 438.289 90.1337 438.289 87.9852V80.7098ZM89.1191 234.589V216.474C91.9837 216.474 93.8555 216.099 94.7344 215.35C95.6458 214.569 96.1016 213.121 96.1016 211.005V182.977L79.4023 234.589H60.6035L43.6113 185.712V211.591C43.6113 212.665 43.709 213.528 43.9043 214.179C44.0996 214.797 44.4414 215.285 44.9297 215.643C45.4505 216.002 46.1667 216.229 47.0781 216.327C48.0221 216.425 49.194 216.474 50.5938 216.474V234.589H19.002V216.474C21.8665 216.474 23.9173 216.099 25.1543 215.35C26.3913 214.569 27.0098 213.121 27.0098 211.005V186.298C27.0098 184.149 26.3913 182.701 25.1543 181.952C23.9173 181.171 21.8665 180.78 19.002 180.78V162.665H65.4863L76.7168 196.405L86.4824 162.665H132.381V180.78C129.516 180.78 127.465 181.171 126.229 181.952C125.024 182.701 124.422 184.149 124.422 186.298V211.005C124.422 213.121 125.024 214.569 126.229 215.35C127.465 216.099 129.516 216.474 132.381 216.474V234.589H89.1191ZM162.459 187.567C160.799 187.567 159.367 187.697 158.162 187.958C156.99 188.186 155.981 188.462 155.135 188.788C154.288 189.113 153.589 189.488 153.035 189.911C152.482 190.302 151.993 190.66 151.57 190.985L152.059 191.474C152.677 191.148 153.344 190.822 154.061 190.497C154.809 190.171 155.753 190.009 156.893 190.009C158.813 190.009 160.473 190.643 161.873 191.913C163.273 193.15 163.973 195.136 163.973 197.87C163.973 200.474 162.898 202.574 160.75 204.169C158.634 205.731 155.786 206.513 152.205 206.513C148.787 206.513 146.053 205.536 144.002 203.583C141.984 201.597 140.975 198.798 140.975 195.184C140.975 193.199 141.528 191.229 142.635 189.276C143.742 187.291 145.451 185.516 147.762 183.954C150.105 182.391 153.068 181.106 156.648 180.097C160.262 179.087 164.607 178.583 169.686 178.583C175.74 178.583 180.688 179.153 184.529 180.292C188.37 181.431 191.349 182.896 193.465 184.686C195.613 186.477 197.078 188.511 197.859 190.79C198.673 193.069 199.08 195.363 199.08 197.675V216.766C199.08 219.729 199.178 221.747 199.373 222.821C199.568 223.863 200.301 224.384 201.57 224.384C202.579 224.384 203.279 223.912 203.67 222.968C204.093 221.991 204.305 220.331 204.305 217.987V211.884H209.871V218.085C209.871 221.015 209.627 223.619 209.139 225.897C208.65 228.143 207.723 230.08 206.355 231.708C204.988 233.303 203.133 234.507 200.789 235.321C198.445 236.168 195.451 236.591 191.805 236.591C188.517 236.591 185.783 236.233 183.602 235.516C181.453 234.833 179.744 233.97 178.475 232.929C177.205 231.887 176.294 230.813 175.74 229.706C175.219 228.567 174.959 227.557 174.959 226.679H174.178C173.982 228.013 173.413 229.283 172.469 230.487C171.557 231.692 170.271 232.766 168.611 233.71C166.984 234.621 165.014 235.354 162.703 235.907C160.424 236.493 157.82 236.786 154.891 236.786C152.091 236.786 149.536 236.509 147.225 235.956C144.946 235.435 142.993 234.605 141.365 233.466C139.77 232.294 138.517 230.796 137.605 228.974C136.727 227.118 136.287 224.921 136.287 222.382C136.287 219.257 137.166 216.799 138.924 215.009C140.682 213.186 142.895 211.753 145.564 210.712C148.234 209.638 151.131 208.775 154.256 208.124C157.413 207.44 160.327 206.627 162.996 205.682C165.665 204.738 167.879 203.518 169.637 202.02C171.395 200.523 172.273 198.407 172.273 195.673C172.273 193.231 171.508 191.278 169.979 189.813C168.449 188.316 165.942 187.567 162.459 187.567ZM172.273 208.71C171.557 209.752 170.662 210.598 169.588 211.249C168.514 211.867 167.472 212.486 166.463 213.104C165.486 213.69 164.624 214.406 163.875 215.253C163.159 216.067 162.801 217.173 162.801 218.573C162.801 219.647 163.094 220.624 163.68 221.503C164.266 222.349 165.405 222.772 167.098 222.772C168.628 222.772 169.865 222.186 170.809 221.015C171.785 219.81 172.273 218.134 172.273 215.985V208.71ZM247.176 162.665V211.2C247.176 213.381 247.713 214.813 248.787 215.497C249.861 216.148 251.229 216.474 252.889 216.474H254.207V234.589H213.094V216.474H214.998C216.723 216.474 217.993 215.936 218.807 214.862C219.653 213.755 220.076 212.567 220.076 211.298V186.298C220.076 184.41 219.474 183.026 218.27 182.147C217.098 181.236 215.73 180.78 214.168 180.78H213.094V162.665H247.176ZM265.096 180.78C264.542 180.52 263.94 180.145 263.289 179.657C262.671 179.136 262.101 178.502 261.58 177.753C261.059 176.972 260.604 176.093 260.213 175.116C259.855 174.107 259.676 172.968 259.676 171.698C259.676 169.419 260.327 167.45 261.629 165.79C262.931 164.13 264.738 162.763 267.049 161.688C269.393 160.614 272.192 159.833 275.447 159.345C278.735 158.856 282.381 158.612 286.385 158.612C291.04 158.612 294.946 158.889 298.104 159.442C301.294 159.996 303.865 160.793 305.818 161.835C307.804 162.877 309.204 164.13 310.018 165.595C310.864 167.059 311.287 168.687 311.287 170.477C311.287 171.552 311.108 172.593 310.75 173.602C310.424 174.579 309.855 175.474 309.041 176.288C308.26 177.102 307.218 177.753 305.916 178.241C304.614 178.729 303.035 178.974 301.18 178.974C297.794 178.974 295.288 178.176 293.66 176.581C292.065 174.986 291.268 173.016 291.268 170.673C291.268 169.338 291.626 168.231 292.342 167.352C293.09 166.441 293.904 165.822 294.783 165.497L294.197 165.106C292.439 165.106 291.007 165.334 289.9 165.79C288.826 166.246 287.98 166.799 287.361 167.45C286.775 168.069 286.385 168.785 286.189 169.599C285.994 170.38 285.896 171.145 285.896 171.893C285.896 172.968 286.108 174.042 286.531 175.116C286.954 176.158 287.671 177.102 288.68 177.948C289.689 178.762 291.023 179.446 292.684 179.999C294.344 180.52 296.411 180.78 298.885 180.78H304.305V198.895H293.27V211.2C293.27 213.381 293.807 214.813 294.881 215.497C295.955 216.148 297.322 216.474 298.982 216.474H302.303V234.589H259.188V216.474H261.092C262.817 216.474 264.087 215.936 264.9 214.862C265.747 213.755 266.17 212.567 266.17 211.298V198.895H257.186V180.78H265.096ZM336.385 187.567C334.725 187.567 333.292 187.697 332.088 187.958C330.916 188.186 329.907 188.462 329.061 188.788C328.214 189.113 327.514 189.488 326.961 189.911C326.408 190.302 325.919 190.66 325.496 190.985L325.984 191.474C326.603 191.148 327.27 190.822 327.986 190.497C328.735 190.171 329.679 190.009 330.818 190.009C332.739 190.009 334.399 190.643 335.799 191.913C337.199 193.15 337.898 195.136 337.898 197.87C337.898 200.474 336.824 202.574 334.676 204.169C332.56 205.731 329.712 206.513 326.131 206.513C322.713 206.513 319.979 205.536 317.928 203.583C315.91 201.597 314.9 198.798 314.9 195.184C314.9 193.199 315.454 191.229 316.561 189.276C317.667 187.291 319.376 185.516 321.688 183.954C324.031 182.391 326.993 181.106 330.574 180.097C334.188 179.087 338.533 178.583 343.611 178.583C349.666 178.583 354.614 179.153 358.455 180.292C362.296 181.431 365.275 182.896 367.391 184.686C369.539 186.477 371.004 188.511 371.785 190.79C372.599 193.069 373.006 195.363 373.006 197.675V216.766C373.006 219.729 373.104 221.747 373.299 222.821C373.494 223.863 374.227 224.384 375.496 224.384C376.505 224.384 377.205 223.912 377.596 222.968C378.019 221.991 378.23 220.331 378.23 217.987V211.884H383.797V218.085C383.797 221.015 383.553 223.619 383.064 225.897C382.576 228.143 381.648 230.08 380.281 231.708C378.914 233.303 377.059 234.507 374.715 235.321C372.371 236.168 369.376 236.591 365.73 236.591C362.443 236.591 359.708 236.233 357.527 235.516C355.379 234.833 353.67 233.97 352.4 232.929C351.131 231.887 350.219 230.813 349.666 229.706C349.145 228.567 348.885 227.557 348.885 226.679H348.104C347.908 228.013 347.339 229.283 346.395 230.487C345.483 231.692 344.197 232.766 342.537 233.71C340.91 234.621 338.94 235.354 336.629 235.907C334.35 236.493 331.746 236.786 328.816 236.786C326.017 236.786 323.462 236.509 321.15 235.956C318.872 235.435 316.919 234.605 315.291 233.466C313.696 232.294 312.443 230.796 311.531 228.974C310.652 227.118 310.213 224.921 310.213 222.382C310.213 219.257 311.092 216.799 312.85 215.009C314.607 213.186 316.821 211.753 319.49 210.712C322.16 209.638 325.057 208.775 328.182 208.124C331.339 207.44 334.253 206.627 336.922 205.682C339.591 204.738 341.805 203.518 343.562 202.02C345.32 200.523 346.199 198.407 346.199 195.673C346.199 193.231 345.434 191.278 343.904 189.813C342.374 188.316 339.868 187.567 336.385 187.567ZM346.199 208.71C345.483 209.752 344.588 210.598 343.514 211.249C342.439 211.867 341.398 212.486 340.389 213.104C339.412 213.69 338.549 214.406 337.801 215.253C337.085 216.067 336.727 217.173 336.727 218.573C336.727 219.647 337.02 220.624 337.605 221.503C338.191 222.349 339.331 222.772 341.023 222.772C342.553 222.772 343.79 222.186 344.734 221.015C345.711 219.81 346.199 218.134 346.199 215.985V208.71ZM421.102 180.78V211.2C421.102 213.381 421.639 214.813 422.713 215.497C423.787 216.148 425.154 216.474 426.814 216.474H428.133V234.589H387.02V216.474H388.924C390.649 216.474 391.919 215.936 392.732 214.862C393.579 213.755 394.002 212.567 394.002 211.298V204.413C394.002 202.525 393.4 201.141 392.195 200.263C391.023 199.351 389.656 198.895 388.094 198.895H387.02V180.78H421.102ZM393.221 168.768C393.221 165.969 394.279 163.576 396.395 161.591C398.543 159.605 401.587 158.612 405.525 158.612C409.529 158.612 412.605 159.605 414.754 161.591C416.935 163.576 418.025 165.969 418.025 168.768C418.025 171.633 416.935 174.058 414.754 176.044C412.605 177.997 409.529 178.974 405.525 178.974C401.587 178.974 398.543 177.997 396.395 176.044C394.279 174.058 393.221 171.633 393.221 168.768ZM465.291 162.665V180.78H479.891V198.895H465.291V213.886C465.291 216.034 465.584 217.792 466.17 219.159C466.788 220.526 468.042 221.21 469.93 221.21C470.971 221.21 471.801 221.015 472.42 220.624C473.071 220.201 473.576 219.664 473.934 219.013C474.324 218.329 474.568 217.564 474.666 216.718C474.764 215.839 474.812 214.895 474.812 213.886V206.61H480.428V214.472C480.428 217.629 480.086 220.575 479.402 223.309C478.751 226.044 477.612 228.404 475.984 230.39C474.389 232.375 472.208 233.954 469.441 235.126C466.674 236.298 463.191 236.884 458.992 236.884C454.337 236.884 450.626 236.314 447.859 235.175C445.092 234.035 442.993 232.473 441.561 230.487C440.128 228.502 439.184 226.141 438.729 223.407C438.305 220.673 438.094 217.694 438.094 214.472V198.895H430.428V182.782C432.869 182.782 435.132 182.261 437.215 181.22C439.331 180.145 441.137 178.681 442.635 176.825C444.165 174.937 445.337 172.789 446.15 170.38C446.997 167.971 447.42 165.399 447.42 162.665H465.291Z" fill="#E03125"/>
<path d="M9.7168 77.5137C9.7819 78.8483 10.026 80.1504 10.4492 81.4199C10.8724 82.6895 11.5397 83.8125 12.4512 84.7891C13.3626 85.7331 14.5671 86.498 16.0645 87.084C17.5618 87.6374 19.4336 87.9141 21.6797 87.9141C24.2839 87.9141 26.4323 87.5723 28.125 86.8887C29.8503 86.1725 31.2012 85.2285 32.1777 84.0566C33.1868 82.8848 33.8867 81.5501 34.2773 80.0527C34.7005 78.5553 34.9121 77.0091 34.9121 75.4141V52.123C34.9121 50.3652 34.3424 49.112 33.2031 48.3633C32.0638 47.582 29.7689 47.1914 26.3184 47.1914V29.0762H71.6797V47.1914C68.8151 47.1914 66.7643 47.582 65.5273 48.3633C64.3229 49.112 63.7207 50.5605 63.7207 52.709V75.3164C63.7207 78.1159 63.2812 81.1432 62.4023 84.3984C61.5234 87.6536 59.9121 90.6484 57.5684 93.3828C55.2572 96.1172 52.0671 98.4121 47.998 100.268C43.929 102.09 38.7044 103.002 32.3242 103.002C26.3021 103.002 21.3704 102.172 17.5293 100.512C13.7207 98.8516 10.7422 96.8008 8.59375 94.3594C6.47786 91.918 5.01302 89.3464 4.19922 86.6445C3.38542 83.9427 2.97852 81.599 2.97852 79.6133C2.97852 76.7487 3.40169 74.2096 4.24805 71.9961C5.0944 69.7826 6.1849 67.9434 7.51953 66.4785C8.85417 65.0137 10.4004 63.9232 12.1582 63.207C13.916 62.4583 15.7552 62.084 17.6758 62.084C19.9544 62.084 21.8913 62.4258 23.4863 63.1094C25.0814 63.7604 26.3997 64.6393 27.4414 65.7461C28.4831 66.8529 29.2318 68.1061 29.6875 69.5059C30.1758 70.9056 30.4199 72.3379 30.4199 73.8027C30.4199 75.3978 30.1432 76.8626 29.5898 78.1973C29.069 79.5319 28.3529 80.6875 27.4414 81.6641C26.5625 82.6081 25.4883 83.373 24.2188 83.959C22.9492 84.5124 21.6146 84.7891 20.2148 84.7891C18.5221 84.7891 17.0898 84.5775 15.918 84.1543C14.7786 83.7311 13.8021 83.1777 12.9883 82.4941C12.207 81.778 11.5397 80.9805 10.9863 80.1016C10.4655 79.2227 10.0423 78.36 9.7168 77.5137ZM103.613 77.123C103.743 81.9733 104.655 85.3262 106.348 87.1816C108.073 89.0046 110.531 89.916 113.721 89.916C114.795 89.916 115.837 89.7695 116.846 89.4766C117.887 89.151 118.848 88.6465 119.727 87.9629C120.605 87.2467 121.354 86.319 121.973 85.1797C122.624 84.0078 123.047 82.543 123.242 80.7852H141.016C140.365 84.9844 139.16 88.5 137.402 91.332C135.677 94.1641 133.447 96.459 130.713 98.2168C127.979 99.9421 124.788 101.179 121.143 101.928C117.529 102.709 113.493 103.1 109.033 103.1C104.443 103.1 100.13 102.514 96.0938 101.342C92.0573 100.17 88.5091 98.3958 85.4492 96.0195C82.4219 93.6107 80.0456 90.5996 78.3203 86.9863C76.5951 83.3405 75.7324 79.0111 75.7324 73.998C75.7324 69.2129 76.5462 65.0137 78.1738 61.4004C79.8014 57.7871 82.0801 54.776 85.0098 52.3672C87.972 49.9258 91.4551 48.0866 95.459 46.8496C99.4954 45.6126 103.923 44.9941 108.74 44.9941C114.665 44.9941 119.759 45.7754 124.023 47.3379C128.288 48.9004 131.771 51.0814 134.473 53.8809C137.174 56.6803 139.16 60.0495 140.43 63.9883C141.699 67.9271 142.301 72.3053 142.236 77.123H103.613ZM110.84 58.1777C108.561 58.1777 106.868 58.9915 105.762 60.6191C104.688 62.2142 103.971 64.8672 103.613 68.5781H117.92C117.725 65.388 117.041 62.8652 115.869 61.0098C114.697 59.1217 113.021 58.1777 110.84 58.1777ZM203.76 65.0137H190.332C189.388 62.6699 187.923 60.8145 185.938 59.4473C183.952 58.0801 181.885 57.3965 179.736 57.3965C178.271 57.3965 177.1 57.6732 176.221 58.2266C175.374 58.7474 174.951 59.5449 174.951 60.6191C174.951 61.9538 175.7 62.9629 177.197 63.6465C178.695 64.2975 180.566 64.8835 182.812 65.4043C185.091 65.9251 187.549 66.5599 190.186 67.3086C192.822 68.0247 195.264 69.0664 197.51 70.4336C199.788 71.8008 201.676 73.64 203.174 75.9512C204.671 78.2624 205.42 81.306 205.42 85.082C205.42 88.0117 204.769 90.5671 203.467 92.748C202.165 94.929 200.374 96.7194 198.096 98.1191C195.85 99.5189 193.197 100.561 190.137 101.244C187.077 101.96 183.773 102.318 180.225 102.318C176.774 102.318 173.503 101.977 170.41 101.293C167.35 100.642 164.421 99.5189 161.621 97.9238L161.133 101.293H148.242V81.7129H161.621C162.891 84.3171 164.486 86.3353 166.406 87.7676C168.359 89.1999 170.508 89.916 172.852 89.916C174.642 89.916 175.911 89.5905 176.66 88.9395C177.441 88.2559 177.832 87.5072 177.832 86.6934C177.832 85.3587 177.083 84.3333 175.586 83.6172C174.089 82.8685 172.233 82.2174 170.02 81.6641C167.839 81.0781 165.43 80.4434 162.793 79.7598C160.156 79.0436 157.731 78.0182 155.518 76.6836C153.337 75.349 151.497 73.5586 150 71.3125C148.503 69.0339 147.754 66.0553 147.754 62.377C147.754 59.7402 148.34 57.3314 149.512 55.1504C150.716 52.9694 152.425 51.1302 154.639 49.6328C156.852 48.1354 159.456 46.9961 162.451 46.2148C165.446 45.401 168.734 44.9941 172.314 44.9941C176.318 44.9941 179.915 45.4499 183.105 46.3613C186.328 47.2402 188.737 48.2168 190.332 49.291L190.82 45.8242H203.76V65.0137ZM267.529 65.0137H254.102C253.158 62.6699 251.693 60.8145 249.707 59.4473C247.721 58.0801 245.654 57.3965 243.506 57.3965C242.041 57.3965 240.869 57.6732 239.99 58.2266C239.144 58.7474 238.721 59.5449 238.721 60.6191C238.721 61.9538 239.469 62.9629 240.967 63.6465C242.464 64.2975 244.336 64.8835 246.582 65.4043C248.861 65.9251 251.318 66.5599 253.955 67.3086C256.592 68.0247 259.033 69.0664 261.279 70.4336C263.558 71.8008 265.446 73.64 266.943 75.9512C268.441 78.2624 269.189 81.306 269.189 85.082C269.189 88.0117 268.538 90.5671 267.236 92.748C265.934 94.929 264.144 96.7194 261.865 98.1191C259.619 99.5189 256.966 100.561 253.906 101.244C250.846 101.96 247.542 102.318 243.994 102.318C240.544 102.318 237.272 101.977 234.18 101.293C231.12 100.642 228.19 99.5189 225.391 97.9238L224.902 101.293H212.012V81.7129H225.391C226.66 84.3171 228.255 86.3353 230.176 87.7676C232.129 89.1999 234.277 89.916 236.621 89.916C238.411 89.916 239.681 89.5905 240.43 88.9395C241.211 88.2559 241.602 87.5072 241.602 86.6934C241.602 85.3587 240.853 84.3333 239.355 83.6172C237.858 82.8685 236.003 82.2174 233.789 81.6641C231.608 81.0781 229.199 80.4434 226.562 79.7598C223.926 79.0436 221.501 78.0182 219.287 76.6836C217.106 75.349 215.267 73.5586 213.77 71.3125C212.272 69.0339 211.523 66.0553 211.523 62.377C211.523 59.7402 212.109 57.3314 213.281 55.1504C214.486 52.9694 216.195 51.1302 218.408 49.6328C220.622 48.1354 223.226 46.9961 226.221 46.2148C229.215 45.401 232.503 44.9941 236.084 44.9941C240.088 44.9941 243.685 45.4499 246.875 46.3613C250.098 47.2402 252.507 48.2168 254.102 49.291L254.59 45.8242H267.529V65.0137ZM309.961 47.1914V77.6113C309.961 79.7923 310.498 81.2246 311.572 81.9082C312.646 82.5592 314.014 82.8848 315.674 82.8848H316.992V101H275.879V82.8848H277.783C279.508 82.8848 280.778 82.3477 281.592 81.2734C282.438 80.1667 282.861 78.9785 282.861 77.709V70.8242C282.861 68.9362 282.259 67.5527 281.055 66.6738C279.883 65.7624 278.516 65.3066 276.953 65.3066H275.879V47.1914H309.961ZM282.08 35.1797C282.08 32.3802 283.138 29.9876 285.254 28.002C287.402 26.0163 290.446 25.0234 294.385 25.0234C298.389 25.0234 301.465 26.0163 303.613 28.002C305.794 29.9876 306.885 32.3802 306.885 35.1797C306.885 38.0443 305.794 40.4694 303.613 42.4551C301.465 44.4082 298.389 45.3848 294.385 45.3848C290.446 45.3848 287.402 44.4082 285.254 42.4551C283.138 40.4694 282.08 38.0443 282.08 35.1797ZM356.445 58.1777C353.646 58.1777 351.497 59.3659 350 61.7422C348.503 64.1185 347.754 68.0736 347.754 73.6074C347.754 79.1413 348.519 83.0801 350.049 85.4238C351.611 87.735 353.988 88.8906 357.178 88.8906C358.089 88.8906 359.017 88.7441 359.961 88.4512C360.905 88.1582 361.751 87.735 362.5 87.1816C363.281 86.5957 363.916 85.8633 364.404 84.9844C364.925 84.0729 365.218 83.015 365.283 81.8105H381.055C380.013 89.0697 377.083 94.4408 372.266 97.9238C367.48 101.374 360.645 103.1 351.758 103.1C347.298 103.1 343.132 102.514 339.258 101.342C335.384 100.17 332.015 98.3958 329.15 96.0195C326.286 93.6107 324.04 90.5996 322.412 86.9863C320.785 83.3405 319.971 79.0111 319.971 73.998C319.971 69.2129 320.785 65.0137 322.412 61.4004C324.04 57.7871 326.318 54.776 329.248 52.3672C332.21 49.9258 335.693 48.0866 339.697 46.8496C343.734 45.6126 348.161 44.9941 352.979 44.9941C358.089 44.9941 362.402 45.6289 365.918 46.8984C369.434 48.168 372.266 49.763 374.414 51.6836C376.595 53.5716 378.141 55.6224 379.053 57.8359C379.997 60.0169 380.469 62.0677 380.469 63.9883C380.469 65.5182 380.241 67.0156 379.785 68.4805C379.362 69.9453 378.646 71.2799 377.637 72.4844C376.66 73.6888 375.407 74.6654 373.877 75.4141C372.347 76.1302 370.475 76.4883 368.262 76.4883C366.146 76.4883 364.421 76.1953 363.086 75.6094C361.751 74.9909 360.71 74.2422 359.961 73.3633C359.245 72.4518 358.724 71.5078 358.398 70.5312C358.105 69.5221 357.959 68.5781 357.959 67.6992C357.959 65.7135 358.431 64.1348 359.375 62.9629C360.319 61.791 361.41 60.9772 362.646 60.5215C361.93 59.9681 361.198 59.4473 360.449 58.959C359.733 58.4382 358.398 58.1777 356.445 58.1777ZM411.475 53.9785C409.814 53.9785 408.382 54.1087 407.178 54.3691C406.006 54.597 404.997 54.8737 404.15 55.1992C403.304 55.5247 402.604 55.8991 402.051 56.3223C401.497 56.7129 401.009 57.071 400.586 57.3965L401.074 57.8848C401.693 57.5592 402.36 57.2337 403.076 56.9082C403.825 56.5827 404.769 56.4199 405.908 56.4199C407.829 56.4199 409.489 57.0547 410.889 58.3242C412.288 59.5612 412.988 61.5469 412.988 64.2812C412.988 66.8854 411.914 68.985 409.766 70.5801C407.65 72.1426 404.801 72.9238 401.221 72.9238C397.803 72.9238 395.068 71.9473 393.018 69.9941C390.999 68.0085 389.99 65.209 389.99 61.5957C389.99 59.61 390.544 57.6406 391.65 55.6875C392.757 53.7018 394.466 51.9277 396.777 50.3652C399.121 48.8027 402.083 47.5169 405.664 46.5078C409.277 45.4987 413.623 44.9941 418.701 44.9941C424.756 44.9941 429.704 45.5638 433.545 46.7031C437.386 47.8424 440.365 49.3073 442.48 51.0977C444.629 52.888 446.094 54.9225 446.875 57.2012C447.689 59.4798 448.096 61.7747 448.096 64.0859V83.1777C448.096 86.14 448.193 88.1582 448.389 89.2324C448.584 90.2741 449.316 90.7949 450.586 90.7949C451.595 90.7949 452.295 90.3229 452.686 89.3789C453.109 88.4023 453.32 86.7422 453.32 84.3984V78.2949H458.887V84.4961C458.887 87.4258 458.643 90.0299 458.154 92.3086C457.666 94.5547 456.738 96.4915 455.371 98.1191C454.004 99.7142 452.148 100.919 449.805 101.732C447.461 102.579 444.466 103.002 440.82 103.002C437.533 103.002 434.798 102.644 432.617 101.928C430.469 101.244 428.76 100.382 427.49 99.3398C426.221 98.2982 425.309 97.224 424.756 96.1172C424.235 94.9779 423.975 93.9688 423.975 93.0898H423.193C422.998 94.4245 422.428 95.694 421.484 96.8984C420.573 98.1029 419.287 99.1771 417.627 100.121C415.999 101.033 414.03 101.765 411.719 102.318C409.44 102.904 406.836 103.197 403.906 103.197C401.107 103.197 398.551 102.921 396.24 102.367C393.962 101.846 392.008 101.016 390.381 99.877C388.786 98.7051 387.533 97.2077 386.621 95.3848C385.742 93.5293 385.303 91.332 385.303 88.793C385.303 85.668 386.182 83.2103 387.939 81.4199C389.697 79.597 391.911 78.1647 394.58 77.123C397.249 76.0488 400.146 75.1862 403.271 74.5352C406.429 73.8516 409.342 73.0378 412.012 72.0938C414.681 71.1497 416.895 69.929 418.652 68.4316C420.41 66.9342 421.289 64.8184 421.289 62.084C421.289 59.6426 420.524 57.6895 418.994 56.2246C417.464 54.7272 414.958 53.9785 411.475 53.9785ZM421.289 75.1211C420.573 76.1628 419.678 77.0091 418.604 77.6602C417.529 78.2786 416.488 78.8971 415.479 79.5156C414.502 80.1016 413.639 80.8177 412.891 81.6641C412.174 82.4779 411.816 83.5846 411.816 84.9844C411.816 86.0586 412.109 87.0352 412.695 87.9141C413.281 88.7604 414.421 89.1836 416.113 89.1836C417.643 89.1836 418.88 88.5977 419.824 87.4258C420.801 86.2214 421.289 84.5449 421.289 82.3965V75.1211ZM72.1191 229V210.885C74.9837 210.885 76.8555 210.51 77.7344 209.762C78.6458 208.98 79.1016 207.532 79.1016 205.416V177.389L62.4023 229H43.6035L26.6113 180.123V206.002C26.6113 207.076 26.709 207.939 26.9043 208.59C27.0996 209.208 27.4414 209.697 27.9297 210.055C28.4505 210.413 29.1667 210.641 30.0781 210.738C31.0221 210.836 32.194 210.885 33.5938 210.885V229H2.00195V210.885C4.86654 210.885 6.91732 210.51 8.1543 209.762C9.39128 208.98 10.0098 207.532 10.0098 205.416V180.709C10.0098 178.561 9.39128 177.112 8.1543 176.363C6.91732 175.582 4.86654 175.191 2.00195 175.191V157.076H48.4863L59.7168 190.816L69.4824 157.076H115.381V175.191C112.516 175.191 110.465 175.582 109.229 176.363C108.024 177.112 107.422 178.561 107.422 180.709V205.416C107.422 207.532 108.024 208.98 109.229 209.762C110.465 210.51 112.516 210.885 115.381 210.885V229H72.1191ZM145.459 181.979C143.799 181.979 142.367 182.109 141.162 182.369C139.99 182.597 138.981 182.874 138.135 183.199C137.288 183.525 136.589 183.899 136.035 184.322C135.482 184.713 134.993 185.071 134.57 185.396L135.059 185.885C135.677 185.559 136.344 185.234 137.061 184.908C137.809 184.583 138.753 184.42 139.893 184.42C141.813 184.42 143.473 185.055 144.873 186.324C146.273 187.561 146.973 189.547 146.973 192.281C146.973 194.885 145.898 196.985 143.75 198.58C141.634 200.143 138.786 200.924 135.205 200.924C131.787 200.924 129.053 199.947 127.002 197.994C124.984 196.008 123.975 193.209 123.975 189.596C123.975 187.61 124.528 185.641 125.635 183.688C126.742 181.702 128.451 179.928 130.762 178.365C133.105 176.803 136.068 175.517 139.648 174.508C143.262 173.499 147.607 172.994 152.686 172.994C158.74 172.994 163.688 173.564 167.529 174.703C171.37 175.842 174.349 177.307 176.465 179.098C178.613 180.888 180.078 182.923 180.859 185.201C181.673 187.48 182.08 189.775 182.08 192.086V211.178C182.08 214.14 182.178 216.158 182.373 217.232C182.568 218.274 183.301 218.795 184.57 218.795C185.579 218.795 186.279 218.323 186.67 217.379C187.093 216.402 187.305 214.742 187.305 212.398V206.295H192.871V212.496C192.871 215.426 192.627 218.03 192.139 220.309C191.65 222.555 190.723 224.492 189.355 226.119C187.988 227.714 186.133 228.919 183.789 229.732C181.445 230.579 178.451 231.002 174.805 231.002C171.517 231.002 168.783 230.644 166.602 229.928C164.453 229.244 162.744 228.382 161.475 227.34C160.205 226.298 159.294 225.224 158.74 224.117C158.219 222.978 157.959 221.969 157.959 221.09H157.178C156.982 222.424 156.413 223.694 155.469 224.898C154.557 226.103 153.271 227.177 151.611 228.121C149.984 229.033 148.014 229.765 145.703 230.318C143.424 230.904 140.82 231.197 137.891 231.197C135.091 231.197 132.536 230.921 130.225 230.367C127.946 229.846 125.993 229.016 124.365 227.877C122.77 226.705 121.517 225.208 120.605 223.385C119.727 221.529 119.287 219.332 119.287 216.793C119.287 213.668 120.166 211.21 121.924 209.42C123.682 207.597 125.895 206.165 128.564 205.123C131.234 204.049 134.131 203.186 137.256 202.535C140.413 201.852 143.327 201.038 145.996 200.094C148.665 199.15 150.879 197.929 152.637 196.432C154.395 194.934 155.273 192.818 155.273 190.084C155.273 187.643 154.508 185.689 152.979 184.225C151.449 182.727 148.942 181.979 145.459 181.979ZM155.273 203.121C154.557 204.163 153.662 205.009 152.588 205.66C151.514 206.279 150.472 206.897 149.463 207.516C148.486 208.102 147.624 208.818 146.875 209.664C146.159 210.478 145.801 211.585 145.801 212.984C145.801 214.059 146.094 215.035 146.68 215.914C147.266 216.76 148.405 217.184 150.098 217.184C151.628 217.184 152.865 216.598 153.809 215.426C154.785 214.221 155.273 212.545 155.273 210.396V203.121ZM230.176 157.076V205.611C230.176 207.792 230.713 209.225 231.787 209.908C232.861 210.559 234.229 210.885 235.889 210.885H237.207V229H196.094V210.885H197.998C199.723 210.885 200.993 210.348 201.807 209.273C202.653 208.167 203.076 206.979 203.076 205.709V180.709C203.076 178.821 202.474 177.438 201.27 176.559C200.098 175.647 198.73 175.191 197.168 175.191H196.094V157.076H230.176ZM248.096 175.191C247.542 174.931 246.94 174.557 246.289 174.068C245.671 173.548 245.101 172.913 244.58 172.164C244.059 171.383 243.604 170.504 243.213 169.527C242.855 168.518 242.676 167.379 242.676 166.109C242.676 163.831 243.327 161.861 244.629 160.201C245.931 158.541 247.738 157.174 250.049 156.1C252.393 155.025 255.192 154.244 258.447 153.756C261.735 153.268 265.381 153.023 269.385 153.023C274.04 153.023 277.946 153.3 281.104 153.854C284.294 154.407 286.865 155.204 288.818 156.246C290.804 157.288 292.204 158.541 293.018 160.006C293.864 161.471 294.287 163.098 294.287 164.889C294.287 165.963 294.108 167.005 293.75 168.014C293.424 168.99 292.855 169.885 292.041 170.699C291.26 171.513 290.218 172.164 288.916 172.652C287.614 173.141 286.035 173.385 284.18 173.385C280.794 173.385 278.288 172.587 276.66 170.992C275.065 169.397 274.268 167.428 274.268 165.084C274.268 163.749 274.626 162.643 275.342 161.764C276.09 160.852 276.904 160.234 277.783 159.908L277.197 159.518C275.439 159.518 274.007 159.745 272.9 160.201C271.826 160.657 270.98 161.21 270.361 161.861C269.775 162.48 269.385 163.196 269.189 164.01C268.994 164.791 268.896 165.556 268.896 166.305C268.896 167.379 269.108 168.453 269.531 169.527C269.954 170.569 270.671 171.513 271.68 172.359C272.689 173.173 274.023 173.857 275.684 174.41C277.344 174.931 279.411 175.191 281.885 175.191H287.305V193.307H276.27V205.611C276.27 207.792 276.807 209.225 277.881 209.908C278.955 210.559 280.322 210.885 281.982 210.885H285.303V229H242.188V210.885H244.092C245.817 210.885 247.087 210.348 247.9 209.273C248.747 208.167 249.17 206.979 249.17 205.709V193.307H240.186V175.191H248.096ZM319.385 181.979C317.725 181.979 316.292 182.109 315.088 182.369C313.916 182.597 312.907 182.874 312.061 183.199C311.214 183.525 310.514 183.899 309.961 184.322C309.408 184.713 308.919 185.071 308.496 185.396L308.984 185.885C309.603 185.559 310.27 185.234 310.986 184.908C311.735 184.583 312.679 184.42 313.818 184.42C315.739 184.42 317.399 185.055 318.799 186.324C320.199 187.561 320.898 189.547 320.898 192.281C320.898 194.885 319.824 196.985 317.676 198.58C315.56 200.143 312.712 200.924 309.131 200.924C305.713 200.924 302.979 199.947 300.928 197.994C298.91 196.008 297.9 193.209 297.9 189.596C297.9 187.61 298.454 185.641 299.561 183.688C300.667 181.702 302.376 179.928 304.688 178.365C307.031 176.803 309.993 175.517 313.574 174.508C317.188 173.499 321.533 172.994 326.611 172.994C332.666 172.994 337.614 173.564 341.455 174.703C345.296 175.842 348.275 177.307 350.391 179.098C352.539 180.888 354.004 182.923 354.785 185.201C355.599 187.48 356.006 189.775 356.006 192.086V211.178C356.006 214.14 356.104 216.158 356.299 217.232C356.494 218.274 357.227 218.795 358.496 218.795C359.505 218.795 360.205 218.323 360.596 217.379C361.019 216.402 361.23 214.742 361.23 212.398V206.295H366.797V212.496C366.797 215.426 366.553 218.03 366.064 220.309C365.576 222.555 364.648 224.492 363.281 226.119C361.914 227.714 360.059 228.919 357.715 229.732C355.371 230.579 352.376 231.002 348.73 231.002C345.443 231.002 342.708 230.644 340.527 229.928C338.379 229.244 336.67 228.382 335.4 227.34C334.131 226.298 333.219 225.224 332.666 224.117C332.145 222.978 331.885 221.969 331.885 221.09H331.104C330.908 222.424 330.339 223.694 329.395 224.898C328.483 226.103 327.197 227.177 325.537 228.121C323.91 229.033 321.94 229.765 319.629 230.318C317.35 230.904 314.746 231.197 311.816 231.197C309.017 231.197 306.462 230.921 304.15 230.367C301.872 229.846 299.919 229.016 298.291 227.877C296.696 226.705 295.443 225.208 294.531 223.385C293.652 221.529 293.213 219.332 293.213 216.793C293.213 213.668 294.092 211.21 295.85 209.42C297.607 207.597 299.821 206.165 302.49 205.123C305.16 204.049 308.057 203.186 311.182 202.535C314.339 201.852 317.253 201.038 319.922 200.094C322.591 199.15 324.805 197.929 326.562 196.432C328.32 194.934 329.199 192.818 329.199 190.084C329.199 187.643 328.434 185.689 326.904 184.225C325.374 182.727 322.868 181.979 319.385 181.979ZM329.199 203.121C328.483 204.163 327.588 205.009 326.514 205.66C325.439 206.279 324.398 206.897 323.389 207.516C322.412 208.102 321.549 208.818 320.801 209.664C320.085 210.478 319.727 211.585 319.727 212.984C319.727 214.059 320.02 215.035 320.605 215.914C321.191 216.76 322.331 217.184 324.023 217.184C325.553 217.184 326.79 216.598 327.734 215.426C328.711 214.221 329.199 212.545 329.199 210.396V203.121ZM404.102 175.191V205.611C404.102 207.792 404.639 209.225 405.713 209.908C406.787 210.559 408.154 210.885 409.814 210.885H411.133V229H370.02V210.885H371.924C373.649 210.885 374.919 210.348 375.732 209.273C376.579 208.167 377.002 206.979 377.002 205.709V198.824C377.002 196.936 376.4 195.553 375.195 194.674C374.023 193.762 372.656 193.307 371.094 193.307H370.02V175.191H404.102ZM376.221 163.18C376.221 160.38 377.279 157.988 379.395 156.002C381.543 154.016 384.587 153.023 388.525 153.023C392.529 153.023 395.605 154.016 397.754 156.002C399.935 157.988 401.025 160.38 401.025 163.18C401.025 166.044 399.935 168.469 397.754 170.455C395.605 172.408 392.529 173.385 388.525 173.385C384.587 173.385 381.543 172.408 379.395 170.455C377.279 168.469 376.221 166.044 376.221 163.18ZM448.291 157.076V175.191H462.891V193.307H448.291V208.297C448.291 210.445 448.584 212.203 449.17 213.57C449.788 214.938 451.042 215.621 452.93 215.621C453.971 215.621 454.801 215.426 455.42 215.035C456.071 214.612 456.576 214.075 456.934 213.424C457.324 212.74 457.568 211.975 457.666 211.129C457.764 210.25 457.812 209.306 457.812 208.297V201.021H463.428V208.883C463.428 212.04 463.086 214.986 462.402 217.721C461.751 220.455 460.612 222.815 458.984 224.801C457.389 226.786 455.208 228.365 452.441 229.537C449.674 230.709 446.191 231.295 441.992 231.295C437.337 231.295 433.626 230.725 430.859 229.586C428.092 228.447 425.993 226.884 424.561 224.898C423.128 222.913 422.184 220.553 421.729 217.818C421.305 215.084 421.094 212.105 421.094 208.883V193.307H413.428V177.193C415.869 177.193 418.132 176.673 420.215 175.631C422.331 174.557 424.137 173.092 425.635 171.236C427.165 169.348 428.337 167.2 429.15 164.791C429.997 162.382 430.42 159.811 430.42 157.076H448.291Z" fill="#ADAB37"/>
</svg>
