<svg width="190" height="104" viewBox="0 0 190 104" fill="none" xmlns="http://www.w3.org/2000/svg">
<path d="M34.5 31.125H43.9922L44.0312 70.6172C43.9792 73.2734 43.4583 75.7214 42.4688 77.9609C41.5052 80.1745 40.1641 82.0885 38.4453 83.7031C36.7526 85.2917 34.7604 86.5417 32.4688 87.4531C30.1771 88.3385 27.6901 88.7812 25.0078 88.7812C22.2214 88.7812 19.6953 88.4036 17.4297 87.6484C15.1641 86.8672 13.2109 85.7474 11.5703 84.2891C9.92969 82.8047 8.6276 80.9818 7.66406 78.8203C6.70052 76.6589 6.15365 74.1849 6.02344 71.3984H15.4766C15.6068 74.4714 16.4661 76.8672 18.0547 78.5859C19.6693 80.2786 21.987 81.125 25.0078 81.125C26.4401 81.125 27.7422 80.8516 28.9141 80.3047C30.0859 79.7578 31.0755 79.0026 31.8828 78.0391C32.7161 77.0755 33.3542 75.9688 33.7969 74.7188C34.2396 73.4427 34.474 72.0755 34.5 70.6172V31.125ZM66.9609 31.125L74.0312 55.6953L81.8438 31.125H93.4844V88H84.6562V68.4688L85.2031 43.5469L76.4531 70.8125H71.5312L63.6016 44.4844L64.1484 68.4688V88H55.3203V31.125H66.9609Z" fill="#E03125"/>
<path d="M32.5 27.125H41.9922L42.0312 66.6172C41.9792 69.2734 41.4583 71.7214 40.4688 73.9609C39.5052 76.1745 38.1641 78.0885 36.4453 79.7031C34.7526 81.2917 32.7604 82.5417 30.4688 83.4531C28.1771 84.3385 25.6901 84.7812 23.0078 84.7812C20.2214 84.7812 17.6953 84.4036 15.4297 83.6484C13.1641 82.8672 11.2109 81.7474 9.57031 80.2891C7.92969 78.8047 6.6276 76.9818 5.66406 74.8203C4.70052 72.6589 4.15365 70.1849 4.02344 67.3984H13.4766C13.6068 70.4714 14.4661 72.8672 16.0547 74.5859C17.6693 76.2786 19.987 77.125 23.0078 77.125C24.4401 77.125 25.7422 76.8516 26.9141 76.3047C28.0859 75.7578 29.0755 75.0026 29.8828 74.0391C30.7161 73.0755 31.3542 71.9688 31.7969 70.7188C32.2396 69.4427 32.474 68.0755 32.5 66.6172V27.125ZM64.9609 27.125L72.0312 51.6953L79.8438 27.125H91.4844V84H82.6562V64.4688L83.2031 39.5469L74.4531 66.8125H69.5312L61.6016 40.4844L62.1484 64.4688V84H53.3203V27.125H64.9609Z" fill="#ADAB37"/>
</svg>
