<svg width="762" height="525" viewBox="0 0 762 525" fill="none" xmlns="http://www.w3.org/2000/svg">
<path d="M332.958 20.5272C213.487 70.5926 65.2466 -26.7595 19.2172 86.7755C-6.39435 149.948 56.6167 140.887 37.917 259.729C19.2172 378.572 88.8219 543.434 204.657 475.668C320.491 407.903 375.032 445.831 510.606 498.426C646.179 551.02 645.14 440.269 709.031 346.206C772.922 252.144 768.247 247.086 635.79 216.238C503.333 185.389 452.428 -29.5382 332.958 20.5272Z" fill="#D8BDDA" stroke="#ADAB37" stroke-width="25"/>
<path d="M334.308 43.8182C220.68 89.168 79.6911 0.985336 35.9131 103.827C11.5543 161.049 71.4833 152.841 53.6982 260.49C35.9131 368.139 102.113 517.473 212.282 456.091C322.451 394.708 374.324 429.064 503.266 476.704C632.208 524.344 631.22 424.025 691.986 338.822C752.752 253.619 748.305 249.038 622.327 221.095C496.35 193.152 447.935 -1.53159 334.308 43.8182Z" fill="#D8BDDA" stroke="#E03125" stroke-width="25"/>
</svg>
